<?xml version="1.0" encoding="UTF-8"?>
<svg version="1.1" viewBox="0 0 1600 1332" width="663" height="552" xmlns="http://www.w3.org/2000/svg">
<path transform="translate(637,119)" d="m0 0h250l6 4 7 7 4 5 8 7 5 8 1 4 1 122 22-5h5l-5-25v-23l3-18 6-17 9-14 9-10 12-10 17-10 16-6 18-4 13-1v-9h9l16 3 18 6 17 8 16 10 14 12 14 14 9 14 9 25 4 17-1 2h-7v21l-2 10 18 4 36 12 23 10 17 8 11 6 29 1-1-71-27-1 2-4 9-9 7-8 12-13 11-12 9-10 12-13 3-4 4 1 7 8 13 14 7 8 14 15 11 12 9 10 3 3v2h-27v98l19 12 16 12 10 9 8 7 7 7 9 11 10 13 11 18 8 15 9 24 5 20 3 20 1 14v20l-2 23-4 22-6 21-8 20-8 15-10 15-8 10-9 10-16 16-17 13-15 10-11 7-6 11-15 23-14 20-9 12-22 28-12 14-13 15-13 13v10l14 102 8 61 12 88v15l-3 10-6 9-6 3-451 1-15 6-37 14-36 12-31 9-32 8-47 9-28 4-31 3h-15l-31 6-27 3-14 1h-63l-31-4-14-4-10-6 1-3 13-5 17-4 11-2 4-12-5-2-14-11-10-8-13-11h-2-2v2h2l7 8 3 2-1 3-7-2 2 6 1 4h3l-1 4 4-2 4 4v2h2l1-2 3 2v1h5l4 2 3-1 2-2 1 5-3 4 1 2-9-2-19-7-18-8-30-14-19-9-23-13-7-4v-2h-2l-2 5-9 15-5 9h-9l-5 8-1 2 9 3 19 8 11 7 4 3 29 3 15 3 12 4 5 3-2 4-8 4-17 4-27 3-22 1h-63l-20-3-17-4-12-5-3-2 2-4 10-4 24-5 10-13 11-16 2-4h-10l1-5 12-22 9-16 6-17-1-3-6-7-8-14-4-13-2-13v-14l3-18 7-24 9-21 14-28 14-24 16-26 22-33 1-1v-36l-3-87-1-17-15-2 1-9 16-68v-30l-29 6-17 2h-22l-14-3-10-5-7-8-2-6 1-19 3-14 7-19 12-28 13-26 16-26 12-19 16-24 2-2 13-1 52-1 7-32v-6l-11-8-6-9-4-10-1-7-8-1-6-4-4-5-1-3v-13l3-5 5-4-1-5v-15l4-8 7-7 9-3 13 2 9-10 7-3h14l8 3 7 8v2h26l8 5 3 7v13l-3 6-9 6-9 3-7 1 1 9 6 16v3l-8 1 2 5 3 19v9l-8 4-9 1v36h153l23-1 32-54 9-15 2-3 1-215 6-12 7-6zm521 155m-5 14m-1 2m-198 1m1 1 1 2zm196 0m-195 2m194 0m-193 1 1 2zm192 0m-191 2v2l2-1zm2 2m187 0m-2 3m-2 3m-1 1m-2 3m59 1m-61 1m55 0m-56 1m51 0 4 1zm-4 1 4 1zm-4 1-11 4 3 1 12-4zm-45 1m-2 2-1 2h2zm33 2m-2 1m-3 1m-2 1m-2 1m-2 1m-3 1m-535 103-8 11-7 7-15 10-18 8-17 4-36 6-29 2-25 2-1 1-5 77-4 74v13l4 19 3 3 3-7 11-15 3-6 10-75v-3h31l4-15 5-9 5-6 10-6 7-2h21l24-28 14-15 9-10 7-8 3-2-4-10-2-20zm18 43m-341 31-3 4-12 26-21 42-2 3v4h46l1-1-1-18-5-52-1-7zm257 26-9 3-10 9-5 10v8l1 1h9l9-10 8-10 7-9v-2zm16 3m2 1m3 2m1 1m2 1m1 1m16 5m-120 109 1 2zm-1 5 1 4zm-4 30-2 3-1 4 1 5h2l1-5v-7zm-72 108v14l4 1 3 7 1-3-6-19zm-1 16v6h1v-6zm9 6 1 2zm-10 3 1 4zm11 0 1 3zm1 3 1 2zm1 2 1 4zm1 4 1 2zm1 2 1 4zm1 4 1 5 1-3zm2 5 1 7 2 5 1-3-3-9zm4 12 1 7 2 2-2-9zm3 9 1 3zm1 3 1 3zm1 3 1 6 1-3zm-34 4m36 2 1 2zm1 3 1 3zm1 3 1 2zm1 3 1 2zm1 3 1 2zm1 3m1 3m1 3m1 3m4 11m1 3m1 3m-59 6 1 3zm61 0m-62 4 1 3zm64 2m-65 2 1 4zm-1 4-12 39-2 9 2-2 11-34 2-8zm-65 6m131 6m-136 1m-4 7m-5 9m140 2m-76 17 1 3zm-1 3 1 3zm-1 3-3 8 1 3 3-8zm-4 11 1 3zm-1 3-1 5 2-2zm-2 5 1 3zm-1 3-4 10 1 3 4-10zm-101 1m2 3-1 3h2zm1 4 2 1v2h2l-1-3zm0 3m4 0-2 4 3 1v4h3l1 3 1-2 2-1h-2l-1-5h-2l-2-4zm-19 2m108 0-6 14 1 3 6-14zm-92 2m26 1m-29 1 1 2zm-14 2m16 1 2 3v-3zm3 0m-4 2m5 0m2 0 1 2zm7 0 1 3zm12 0 1 2zm-15 1 1 2 1-2zm-12 1m4 0 1 2h3v-2zm-19 1m14 0m4 0v3l2-1zm-7 1m17 0m-29 1v2l2-1zm6 0m2 0m6 0m19-1-2 3v4l-6 5 2-5-4 2v2h-2l3-3 1-5h-2v2l-5-2-2-2-2 3-4-2v3l-2 1 1 2-5-2-4-1-1 2-1 12-1 2h2l-1 4 2 11v6l3-1-1 4 5 5v4l1 1 1 9 1 4 3 1 6-21 3-10 7-14 11-16 1-5-5-2zm-10 1m3 0m15 0 1 2zm-20 1 1 2zm-15 1 2 2v-2zm-4 1m2 0m24 0m76 0-2 4 1 3 2-4zm-99 1m22 0m-20 1m21 0 1 2zm73 5 1 2zm-1 2 1 2zm-1 2-3 6 1 3 3-6zm-4 9 1 2zm-1 2 1 2zm-1 2 1 2zm-1 3m-94 2m93 0m-1 2m-1 2 1 2zm-1 2m-1 2 1 2zm-1 2 1 2zm-1 2 1 2zm-1 2 1 2zm-1 2 1 2zm-1 2 1 2zm-1 2 1 2zm-1 2-12 22-13 23 1 3 5-1 3-6v-3h2l3-6 1-5h2l1-4 3-5v-4h2l3-9v-5zm-16 43m56 1m1 1m2 0m2 2 1 3zm-71 1m73 1v3l2 2 1-3zm-2 2m5 1 1 6 4 2 5 1-5-6zm-4 1m14 8v4l2 2 2-3zm105 3m302 0m5 0v1h5v-1zm6 0v1h32v-1zm-420 6 1 2zm-24 1m30 2-1 4 2-4zm-5 1 1 2zm-8 1m-7 2m11 0m-7 1m2 0m14 0 1 2 1-2zm-7 1m2 0m54 0 3 3v-3zm-60 1m9 0m-15 2m8 0m-5 1m8 0v2h3v-2zm6 0m-13 1m12 0m2 0 1 2zm-8 1m4 0m1 1m3 1m-6 1m7 0m82 0 2 2 3-1zm-84 2m12 4v2l2-1z" fill="#B9BBB1"/>
<path transform="translate(472,719)" d="m0 0h704l32 1-1 13-21 156-10 74-11 81-8 59-5 24-6 11-8 9-6 4-294 1-15 6-37 14-36 12-31 9-32 8-47 9-28 4-31 3h-18l3-3v-4l-10-4-18-4-28-3-1-2-5-2-17-9-21-7v-2h-6l1-5 4-5 7-1 5-14 3-7 9-36 8-40 5-31 3-34 1-17v-53l-3-39-5-37-8-42-8-32-7-24-9-28v-4h7zm6 433m302 0m5 0v1h5v-1zm6 0v1h32v-1z" fill="#FCFCFC"/>
<path transform="translate(375,270)" d="m0 0h14l8 3 7 8v2h26l8 5 3 7v13l-3 6-9 6-9 3-7 1 1 9 6 16v3l-8 1 2 5 3 19v9l-8 4-9 1v36h153l23-1 32-54 9-15 4-9 6-9 4-4 10-19 7-10 9-8 16-9 10-4h4l-1 5-12 11-8 7-2 4 6-1 14-9h2l-1 5-7 8-9 8-9 6-5 4-2 5h5l-1 5-12 33-7 16-3 7-11 23h-2l-2 5-4 4-7 9-7 7-15 10-18 8-17 4-36 6-29 2-25 2-5 77-4 74v13l5 25 4 16 3 9 4 14 87 1h654l-1 11h-737l1 9h-7l11 36 6 20 8 32 8 42 5 37 3 39v53l-3 39-2 17-6 36-7 34-8 32-5 12-3 9-1 1-7 1-4 6-1 3 9 2 10 3 12 5 15 8 4 2v2h10l24 3 18 5 5 3-1 5-4 3-27 5-27 3-14 1h-63l-31-4-14-4-10-6 1-3 13-5 17-4 11-2 4-12-5-2-14-11-10-8-13-11h-2-2v2h2l7 8 3 2-1 3-7-2 2 6 1 4h3l-1 4 4-2 4 4v2h2l1-2 3 2v1h5l4 2 3-1 2-2 1 5-3 4 1 2-9-2-19-7-18-8-30-14-19-9-23-13-7-4v-2h-2l-2 5-9 15-5 9h-9l-5 8-1 2 9 3 19 8 11 7 4 3 29 3 15 3 12 4 5 3-2 4-8 4-17 4-27 3-22 1h-63l-20-3-17-4-12-5-3-2 2-4 10-4 24-5 10-13 11-16 2-4h-10l1-5 12-22 9-16 6-17-1-3-6-7-8-14-4-13-2-13v-14l3-18 7-24 9-21 14-28 14-24 16-26 22-33 1-1v-36l-3-87-1-17-15-2 1-9 16-68v-30l-29 6-17 2h-22l-14-3-10-5-7-8-2-6 1-19 3-14 7-19 12-28 13-26 16-26 12-19 16-24 2-2 13-1 52-1 7-32v-6l-11-8-6-9-4-10-1-7-8-1-6-4-4-5-1-3v-13l3-5 5-4-1-5v-15l4-8 7-7 9-3 13 2 9-10zm-81 232-3 4-12 26-21 42-2 3v4h46l1-1-1-18-5-52-1-7zm101 292v14l4 1 3 7 1-3-6-19zm-1 16v6h1v-6zm9 6 1 2zm-10 3 1 4zm11 0 1 3zm1 3 1 2zm1 2 1 4zm1 4 1 2zm1 2 1 4zm1 4 1 5 1-3zm2 5 1 7 2 5 1-3-3-9zm4 12 1 7 2 2-2-9zm3 9 1 3zm1 3 1 3zm1 3 1 6 1-3zm-34 4m36 2 1 2zm1 3 1 3zm1 3 1 2zm1 3 1 2zm1 3 1 2zm1 3m1 3m1 3m1 3m4 11m1 3m1 3m-59 6 1 3zm61 0m-62 4 1 3zm64 2m-65 2 1 4zm-1 4-12 39-2 9 2-2 11-34 2-8zm-65 6m131 6m-136 1m-4 7m-5 9m140 2m-76 17 1 3zm-1 3 1 3zm-1 3-3 8 1 3 3-8zm-4 11 1 3zm-1 3-1 5 2-2zm-2 5 1 3zm-1 3-4 10 1 3 4-10zm-101 1m2 3-1 3h2zm1 4 2 1v2h2l-1-3zm0 3m4 0-2 4 3 1v4h3l1 3 1-2 2-1h-2l-1-5h-2l-2-4zm-19 2m108 0-6 14 1 3 6-14zm-92 2m26 1m-29 1 1 2zm-14 2m16 1 2 3v-3zm3 0m-4 2m5 0m2 0 1 2zm7 0 1 3zm12 0 1 2zm-15 1 1 2 1-2zm-12 1m4 0 1 2h3v-2zm-19 1m14 0m4 0v3l2-1zm-7 1m17 0m-29 1v2l2-1zm6 0m2 0m6 0m19-1-2 3v4l-6 5 2-5-4 2v2h-2l3-3 1-5h-2v2l-5-2-2-2-2 3-4-2v3l-2 1 1 2-5-2-4-1-1 2-1 12-1 2h2l-1 4 2 11v6l3-1-1 4 5 5v4l1 1 1 9 1 4 3 1 6-21 3-10 7-14 11-16 1-5-5-2zm-10 1m3 0m15 0 1 2zm-20 1 1 2zm-15 1 2 2v-2zm-4 1m2 0m24 0m76 0-2 4 1 3 2-4zm-99 1m22 0m-20 1m21 0 1 2zm73 5 1 2zm-1 2 1 2zm-1 2-3 6 1 3 3-6zm-4 9 1 2zm-1 2 1 2zm-1 2 1 2zm-1 3m-94 2m93 0m-1 2m-1 2 1 2zm-1 2m-1 2 1 2zm-1 2 1 2zm-1 2 1 2zm-1 2 1 2zm-1 2 1 2zm-1 2 1 2zm-1 2 1 2zm-1 2-12 22-13 23 1 3 5-1 3-6v-3h2l3-6 1-5h2l1-4 3-5v-4h2l3-9v-5zm-16 43m56 1m1 1m2 0m2 2 1 3zm-71 1m73 1v3l2 2 1-3zm-2 2m5 1 1 6 4 2 5 1-5-6zm-4 1m14 8v4l2 2 2-3zm-2 9 1 2zm-24 1m30 2-1 4 2-4zm-5 1 1 2zm-8 1m-7 2m11 0m-7 1m2 0m14 0 1 2 1-2zm-7 1m2 0m54 0 3 3v-3zm-60 1m9 0m-15 2m8 0m-5 1m8 0v2h3v-2zm6 0m-13 1m12 0m2 0 1 2zm-8 1m4 0m1 1m3 1m-6 1m7 0m-2 2m12 4v2l2-1z" fill="#404556"/>
<path transform="translate(1224,353)" d="m0 0h40l19 3 17 5 17 6 18 10 12 8 13 10 18 18 13 17 10 17 10 24 5 19 3 16 1 14v16l-2 16-3 17-5 16-8 20-11 19-10 13-9 10-4 5-8 7-11 9-15 10-16 8-17 7-14 4-15 3-8 1h-16l-2-13v-5l4-1 1-7-3-5-4-2-3-17-7-50-3-28-2-5-2 20-16 116-1 4-42 1h-612l-87-1-4-10h2v-9l-4 3-5-22-1-7 4-5 11-15 3-6 10-75 1-3h31l2 11 5 10 8 9 12 6 13 2h3l1-8-4-2-10-2-8-4-8-9-4-12 1-2h9l8-9 8-10 8-11 8 3 7 4 1 2 5 5 3 5 1 11 23 1 3 9 4 10 6 7v2l16 8 13 2 4-4v-5l-15-3-8-5-8-9-2-6v-6h81l5 16 7 10 6 5 10 5 14 2 3-3v-5l-3-2-11-2-10-6-6-8-3-9v-3h81l3 9 4 9 4 6 9 8 12 5 10 1 4-3-1-6-16-4-8-6-5-6-3-8v-5h81l5 15 6 10 7 6 10 5 13 2 3-1 1-7-3-2-11-2-10-6-6-8-4-13v-7l5-10 4-5 9-6 8-2h8l11 4 8 7 5 9 2 6v5h22l2 2 3 12 6 10 9 8 9 4 13 2 4-3v-5l-3-2-14-3-8-6-6-8-3-11v-10l6-10 8-7 10-4h5l1 4 2 25h45l-2-17v-26l3-22 6-22 6-15 8-16 12-18h2l2-5 12-13 10-9h2l1-3 17-12 16-9 18-8 21-6zm-652 181m1 1m-101 116 1 2zm-1 5 1 4z" fill="#92EDB7"/>
<path transform="translate(620,191)" d="m0 0h79l207 1v246l-2 14-6 10-9 8-11 4h-230l-13-5-5-4-6-9-3-8-1-6v-14l-2-1h2l2-5h2l3-9 9-17 15-39 7-19h-5l1-5 10-8 11-8 8-8 3-7-18 11-5-1 2-4 7-7 11-9 3-3 1-4-12 4-15 8-9 7-6 7-13 24-5 5-6 10h-1z" fill="#FBFBFA"/>
<path transform="translate(1224,353)" d="m0 0h40l19 3 17 5 17 6 18 10 12 8 13 10 18 18 13 17 10 17 10 24 5 19 3 16 1 14v16l-2 16-3 17-5 16-8 20-11 19-10 13-9 10-4 5-8 7-11 9-15 10-16 8-17 7-14 4-15 3-8 1h-16l-2-13v-5l4-1 1-7-3-5-4-2-3-17-7-50-3-28-1-2-1-13h-72l-2-12-7-13-7-7-10-5-4-1h-19l-7 1-2-2h-6l-5 5 1 7-6 9-4 13-2 6h-3l-2-3-2-16v-26l3-22 6-22 6-15 8-16 12-18h2l2-5 12-13 10-9h2l1-3 17-12 16-9 18-8 21-6z" fill="#FBFCFC"/>
<path transform="translate(1331,162)" d="m0 0 4 1 7 8 13 14 7 8 14 15 11 12 9 10 3 3v2h-27v98l19 12 16 12 10 9 8 7 7 7 9 11 10 13 11 18 8 15 9 24 5 20 3 20 1 14v20l-2 23-4 22-6 21-8 20-8 15-10 15-8 10-9 10-16 16-17 13-15 10-11 7-6 11-15 23-14 20-9 12-22 28-12 14-13 15-13 13v10l14 102 8 61 12 88v15l-3 10-6 9-6 3h-157l4-4 6-5 7-11 3-7 5-28 12-89 8-59 20-148 10-75 1-5h-32v-1h33v-8l1-3h40l5 38h18l18-3 25-7 21-8 16-8 18-11 14-11 12-11 6-5 7-8 13-16 11-17 8-14 10-24 5-15 5-21 3-24v-30l-3-25-6-25-6-18-9-20-9-16-11-15-8-10-9-10-12-12-11-9-13-9v-2l-5-2-8-5-3-1v-2l-6-2-12-5-5-2v-2l-5-1-18-6-14-3-19-3v-1h21l-1-71-27-1 2-4 9-9 7-8 12-13 11-12 9-10 12-13z" fill="#C3C4C4"/>
<path transform="translate(375,270)" d="m0 0h14l8 3 7 8v2h26l8 5 3 7v13l-3 6-9 6-9 3-7 1 1 9 6 16v3l-8 1 2 5 3 19v9l-8 4-9 1v36h153l23-1 32-54 9-15 4-9 6-9 4-4 10-19 7-10 9-8 16-9 10-4h4l-1 5-12 11-8 7-2 4 6-1 14-9h2l-1 5-7 8-9 8-9 6-5 4-2 5h5l-1 5-12 33-7 16-3 7-11 23h-2l-2 5-4 4-7 9-7 7-15 10-18 8-17 4-36 6-29 2-25 2-2 28h-1v-10l-4 3-7 20-2-2-1-3-3 2h-5v-2h-2l-5-18-3-2-3 18-4 36-2 13-4 5-16 8-4 1h-8l-4-2-1-3 4-7 9-11-5 1-9 6-5 5-8 11-2 4-2 1h-12v21l12-3 8 1h12l15-3 16-8v9l-3 24-2 5h-94l-1-8-6 1v5h-1v-6l-29 6-17 2h-22l-14-3-10-5-7-8-2-6 1-19 3-14 7-19 12-28 13-26 16-26 12-19 16-24 2-2 13-1 52-1 7-32v-6l-11-8-6-9-4-10-1-7-8-1-6-4-4-5-1-3v-13l3-5 5-4-1-5v-15l4-8 7-7 9-3 13 2 9-10zm-81 232-3 4-12 26-21 42-2 3v4h46l1-1-1-18-5-52-1-7z" fill="#528770"/>
<path transform="translate(1257,307)" d="m0 0h16l29 5 16 5 11 4v2l11 3 12 6v2l5 1 11 7v2l5 2 14 11 13 12 12 12 11 14 11 16 9 16 9 21 5 15 6 25 3 25v30l-3 24-5 21-6 18-12 27-12 19-9 12-9 11-11 12-8 7-13 11-15 10-14 8-12 6-24 9-22 6-18 3h-18l-1-1-4-31v-7h-40l2-18 15-109 1-13 2-2 2 7 4 35 8 57v3l5 2 3 5-1 5-3 3h-2l2 12v6l24-2 22-5 12-4 19-8 17-10 12-9 12-11h2l2-4 8-8 10-13 9-15 7-14 7-18 5-20 2-12 1-12v-16l-2-20-5-23-8-21-8-16-9-14-8-10-9-10-12-12-18-13-18-10-5-3-17-6-17-5-19-3h-40l-22 4-17 5-18 8-18 10-15 11-5 5-8 7-7 7-7 10h-2l-2 4-10 16-8 16-7 19-5 22-2 16v26l2 17-1 1h-45l-1-1-2-29-11 3-8 5-6 7-3 6v10l3 11 6 8 7 5 16 4 2 2v5l-5 4-13-2-12-6-8-8-6-11-1-4v-10l2-10 7-14 8-7 10-5 12-3 4-31 5-21 7-21 9-20 8-14 11-16 8-10 9-10 15-15 17-13 15-10 16-8 16-7h2v-2l22-7 20-3 27-2z" fill="#6282DA"/>
<path transform="translate(426,494)" d="m0 0 5 3 4 15v3l7 1 5-2v4l5-11 3-8 4-2v25l-6 108v13l5 25 4 16 3 9 4 14 87 1h654l-1 11h-737l1 9h-7l-1 2-4-1-63-1-7-15-3-10-2 1-6 15-4 9h-71l-15-2 1-9 16-68 1-29 7-2v9l94-1 4-28v-8l-8 5-11 4-11 2h-12l-8-1-8 2h-4v-21l14-1 2-5 9-13 11-8 4-2 4 1-9 11-4 7 1 3 3 1h8l13-5 9-6 1-2 5-37 2-17z" fill="#4E7F63"/>
<path transform="translate(398,799)" d="m0 0 2 1 5 15v7l14 41 3 9h2l1 4 1 5 4 10 2 6 3 8 3 9 3 7 1 5 2 5v7l-3 6-4 20-1 8v21l2 10 1 10v18l-2 14-4 14-2 9-1 12v18l1 3v10l-3 22-7 28-1 6h6l2 2 2-2-1 5-6 17-1-2-5-2-14-11-10-8-13-11h-2-2v2h2l7 8 3 2-1 3-7-2 2 6 1 4h3l-1 4 4-2 4 4v2h2l1-2 3 2v1h5l4 2 3-1 2-2 1 5-3 4 1 2-9-2-19-7-18-8-30-14-19-9-23-13-7-4v-2l-2-1 9-3 3-8h2l2-6 2-5h2l-1-3 4-6 1-4h2l1-7 4-11 3-6 1-7 4-5 1-5h2l13-28 10-26 13-36 9-28 3-12v-8l7-37 5-31 2-13 2-11 1-11 1-1v-10l2-4v3l5 1 2 4-4-12zm-4 11v6h1v-6zm9 6 1 2zm-17 54m38 8 1 2zm-47 41 1 3zm61 0m-62 4 1 3zm59 39m-110 102m-3 6 1 2zm-1 2m-1 2 1 2zm-23 57m56 1m1 1m2 0m2 2 1 3zm2 2v3l2 2 1-3zm-2 2m5 1 1 6 4 2 5 1-5-6zm-4 1m14 8v4l2 2 2-3zm-2 9 1 2zm-24 1m30 2-1 4 2-4zm-5 1 1 2zm-8 1m-7 2m11 0m-7 1m2 0m14 0 1 2 1-2zm-7 1m2 0m-6 1m9 0m-15 2m8 0m-5 1m8 0v2h3v-2zm6 0m-13 1m12 0m2 0 1 2zm-8 1m4 0m1 1m3 1m-6 1m7 0m-2 2m12 4v2l2-1z" fill="#8ED4EF"/>
<path transform="translate(297,427)" d="m0 0h56v1h-6l11 53 2 13 66 1-1 13-3 25-4 29-4 5-16 8-4 1h-8l-4-2-1-3 4-7 9-11-5 1-9 6-5 5-8 11-2 4-2 1h-12v21l12-3 8 1h12l15-3 16-8v9l-3 24-2 5h-94l-1-8-6 1v5h-1v-6l-29 6-17 2h-22l-14-3-10-5-7-8-2-6 1-19 3-14 7-19 12-28 13-26 16-26 12-19 16-24 2-2zm-3 75-3 4-12 26-21 42-2 3v4h46l1-1-1-18-5-52-1-7z" fill="#5E9D7D"/>
<path transform="translate(637,119)" d="m0 0h250l6 4 7 7 4 5 1 3 1 13v39l-1 2h-206l-79-1v-52l6-12 7-6z" fill="#5472C7"/>
<path transform="translate(1331,162)" d="m0 0 4 1 7 8 13 14 7 8 14 15 11 12 9 10 3 3v2h-27v98l19 12 16 12 10 9 8 7 7 7 9 11 10 13 11 18 8 15 9 24 5 20 3 20 1 14v20l-2 23-4 22-6 21-8 20-8 15-10 15-8 10-9 10-16 16-17 13-24 16-7 3-12 5-11 7-12 5-23 6-16 3h-9v-1l24-6 22-8 15-7 13-7 12-8 13-10 12-11 6-5 7-8 13-16 11-17 8-14 10-24 5-15 5-21 3-24v-30l-3-25-6-25-6-18-9-20-9-16-11-15-8-10-9-10-12-12-11-9-13-9v-2l-5-2-8-5-3-1v-2l-6-2-12-5-5-2v-2l-5-1-18-6-14-3-19-3v-1h21l-1-71-27-1 2-4 9-9 7-8 12-13 11-12 9-10 12-13z" fill="#FED984"/>
<path transform="translate(478,1151)" d="m0 0h275l38 1h44l-3 2-19 8-30 11-36 12-35 10-30 7-42 8-28 4-31 3h-18l3-3v-4l-10-4-18-4-28-3-1-2-5-2-17-9-21-7v-2h-6l1-5 4-5 7-1 5-14z" fill="#8FD4EF"/>
<path transform="translate(1138,227)" d="m0 0h10l-1 22-3 15-6 16-5 10-10 14-12 12-13 9-14 7-18 6-12 2h-17l-18-3-17-6-23-13-10-9-7-8v-2l-4-2-6-11 2-4 16-8 19-10 16-8 16-9 14-7 11-5z" fill="#5D9D7D"/>
<path transform="translate(1229,566)" d="m0 0h1l2 7 4 35 8 57v3l5 2 3 5-1 5-3 3h-2l2 12v6l24-2 22-5 12-4 19-8 17-10 12-9 12-11h2l2-4 8-8 10-13 9-15 8-15 2-1-2 10-3 6h-2l-2 6-3 5v2l7-2 5-5 5-3 4-6 6-4 5-3 3 2 1-2 1 2 3-5 2 3 4-5 1 1 2-2 4-3 2-2-1 9-4 11-4 14v6l-11 18-10 14-11 13-10 11-8 7-13 11-15 10-14 8-12 6-24 9-22 6-18 3h-18l-1-1-4-31v-7h-40l2-18 15-109 1-13z" fill="#3859B5"/>
<path transform="translate(1044,124)" d="m0 0h9l16 3 18 6 17 8 16 10 14 12 14 14 9 14 9 25 4 17-1 2h-7v21l-3 15-6 17-3 7h-2l-2 5-3 6-4 4-5 6-5 5-10 8-13 8-13 5-14 3-9 1h-31l-19-4-13-5-12-6-12-9-1-2 6 2 14 8 17 6 18 3h17l16-3 21-8 13-8 10-8 9-9 10-15 6-12 5-15 2-12 1-19 1-3-56 5-48 4-1-32v-69z" fill="#FD6C4D"/>
<path transform="translate(1038,133)" d="m0 0h6v103l-5 3-16 8-15 8-19 10-16 8-14 8-5 2h-4l-6-20-3-17v-23l3-18 6-17 9-14 9-10 12-10 17-10 16-6 18-4z" fill="#FCFCFB"/>
<path transform="translate(683,285)" d="m0 0h4l-1 5-12 11-8 7-2 4 6-1 14-9h2l-1 5-7 8-9 8-9 6-5 4-2 5h5l-1 5-12 33-7 16-3 7-11 23h-2l-2 5-4 4-7 9-7 7-15 10-18 8-17 4-36 6-29 2h-10v-1h9l2-6 6-11 1-2-1-19 4-7h3v-2l-2-1 54-1 23-1 32-54 9-15 4-9 6-9 4-4 10-19 7-10 9-8 16-9z" fill="#5E9D7D"/>
<path transform="translate(1371,334)" d="m0 0 6 2 21 14 10 8 14 12 10 10 9 11 10 13 11 18 8 15 9 24 5 20 3 20 1 14v20l-2 23-4 22-6 21-8 20-8 15-10 15-8 10-9 10-16 16-17 13-24 16-7 3-12 5-11 7-12 5-23 6-16 3h-9v-1l24-6 22-8 15-7 13-7 12-8 13-10 12-11 6-5 7-8 13-16 11-17 8-14 10-24 5-15 5-21 3-24v-30l-3-25-6-25-6-18-9-20-9-16-11-15-8-10-9-10-12-12-11-9-9-7z" fill="#CC920B"/>
<path transform="translate(905,151)" d="m0 0h1v39l-1 2h-206l-78-1v-29l4 2 4 1 3-1h28l2 1h15l27 1h50l39-3 11-1 17-1 19-2h20l21-2h6l14 5h3z" fill="#4967B4"/>
<path transform="translate(331,495)" d="m0 0h95l-1 13-3 25-4 29-4 5-16 8-4 1h-8l-4-2-1-3 4-7 9-11-5 1-9 6-5 5-8 11-2 4-2 1-43-1 8-66z" fill="#FCFBFB"/>
<path transform="translate(1168,708)" d="m0 0h42l-1 11h-731l-7-2-1-5 2-1h16l-14-1v-1z" fill="#51856D"/>
<path transform="translate(612,1151)" d="m0 0h141l38 1h44l-3 2-19 8-30 11-36 12-35 10-30 7-42 8-28 4-13 1-3-2-10-1-3-1v-6l7-5 5-5 7-1 15-6 16-4 7-3 1-3h2l1-4h-3l-1-3h2l1-3 9-1v-2h8l1-4 9-2 1-1 23-2 6-1v-1l6-1-94-1z" fill="#A4E0EE"/>
<path transform="translate(309,868)" d="m0 0h1l2 18v51l-8 11-5 9-7 15-5 18-3 20-5 18-2 3-1 4-6 1-4-2v3l-2 4h-2l-2 4h-2v-3h-2v2h-2l4-8h-2v2l-6-1-1-1-2 3-3-3-2 5-7-1h-2l-1 12v2l1 9 1 6v5h2l-1 4 2 1 1 2 3 2v3l2 1-1 5 1 9 3 1-1 3-6-5-8-13-5-13-3-17v-14l3-18 7-24 9-21 14-28 14-24 16-26 22-33zm0 69m-5 7m-4 7m-5 9m-47 48m2 3-1 3h2zm1 4 2 1v2h2l-1-3zm0 3m4 0-2 4 3 1v4h3l1 3 1-2 2-1h-2l-1-5h-2l-2-4zm-19 2m16 2m26 1m-29 1 1 2zm-14 2m16 1 2 3v-3zm3 0m-4 2m5 0m2 0 1 2zm7 0 1 3zm-3 1 1 2 1-2zm-12 1m4 0 1 2h3v-2zm-19 1m14 0m4 0v3l2-1zm-7 1m17 0m-29 1v2l2-1zm6 0m2 0m6 0m9 0m3 0m-5 1 1 2zm-15 1 2 2v-2zm-4 1m2 0m24 0m-23 1m22 0m-20 1m21 0 1 2z" fill="#8ED4EF"/>
<path transform="translate(375,270)" d="m0 0h14l8 3 7 8v2h26l8 5 3 7v13l-3 6-9 6-9 3-7 1-2 2h-9l-10 1-7 8-3 2h-10l-3-1-1 10-1 2-5-2-6-1-4 5v9l3 6 10 5-1 9-2 9-5-2-9-7-6-10-4-12v-3l-8-1-6-4-4-5-1-3v-13l3-5 5-4-1-5v-15l4-8 7-7 9-3 13 2 9-10z" fill="#404656"/>
<path transform="translate(1138,227)" d="m0 0h10l-1 22-3 15-6 16-5 10-10 14-12 12-13 9-12 6h-2l-2-10-13-27-13-29-12-26v-3l2-1z" fill="#5472C6"/>
<path transform="translate(1232,360)" d="m0 0h26l17 2 18 4 22 8 21 11 12 8 5 4v2l3 1 2 4-10-1-12-2-6-9-4-1 1 2v7l-5 4h-6l-5-5v-7l-4 5-3 6-3 3-17 3-15-1-10-2v-2l-18-4-8 4-13 3h-18l-12-3-6-4-3-5-4-3v-2h-3l4 7-2 6-4 3h-6l-5-5v-6l2-5-11 6h-6l-3-3 9-7 12-7 21-9 16-5 13-3z" fill="#DAE0E2"/>
<path transform="translate(1372,716)" d="m0 0 2 1-6 11-15 23-14 20-9 12-22 28-12 14-13 15-7 7-2-1 5-6-5 4-1 2h-5l-2-6-10-74-2-16 1-2 26-3 20-2 22-5 17-5 11-6 10-6 9-4z" fill="#D4C6AA"/>
<path transform="translate(1425,468)" d="m0 0 7 1 2 1 6 1 4 1 2-1 3 1 1-4 4 2 3-1 2 9h2l4 24 1 11v30l-3 24-5 21-6 18-10 23-2 1 1-10 4-12 4-11v-3l-8 5-5 4-1-3-3 5-6-2-8 6h-2l-2 5-12 10-7 2v-4l5-10h2l1-5 3-8-1-4 6-15 5-20 2-12 1-12v-16l-2-20v-10l5-1v-8l2-5z" fill="#5472C6"/>
<path transform="translate(904,136)" d="m0 0 4 2 7 8 2 4 1 198v88l-1 23-4 10-7 8-8 4-7 2h-233l-13-7-2-3h235l11-4 9-8 5-9 2-14v-287z" fill="#CC920B"/>
<path transform="translate(1087,447)" d="m0 0 1 4-7 16-6 21-3 16-1 10v26l2 17-1 1h-45l-1-1-2-29-11 3-8 5-6 7-3 6v10l3 11 6 8 7 5 16 4 2 2v5l-5 4-13-2-12-6-8-8-6-11-1-4v-10l2-10 7-14 8-7 10-5 12-3 3-25h2v-3h2l2-5 1-2h2l1-4h2l2-4 7-8 6-1h8l4 4 1 3 5-2 1-3h2l1-5h2l1-4 4-8h3z" fill="#5472C7"/>
<path transform="translate(402,325)" d="m0 0h9l9 24v3l-8 1 2 5 3 19v9l-8 4-9 1-1 34-45 1 2-13 8-39v-4l-10-5-3-6v-9l5-6 6 1 5 3 1-13 4 1h10l8-7 2-3z" fill="#E99347"/>
<path transform="translate(1449,591)" d="m0 0h1l-1 9-4 11-3 7-7 15h-2l-2 6-9 14-10 13-16 17-9 8-10 6-3 1-4-2-2-5 1-2h-7l-5 1-3-1-19 6-17 1v-2l5-3h2l2-4 5-2 2-4 13-8 13-10 19-19 10-13 4-6 10-2 4-5 5-3 4-6 6-4 5-3 3 2 1-2 1 2 3-5 2 3 4-5 1 1 2-2 4-3z" fill="#4766B4"/>
<path transform="translate(310,445)" d="m0 0 5 5 2 4 2-1 7 8 11 8 7 6-1 4h-2v2l-10 7-1 6v12l-8 66-2 8h-16l-2-6-6-64-1-11 4-19 1-8v-18l4-4z" fill="#528770"/>
<path transform="translate(1160,266)" d="m0 0 18 4 36 12 23 10 17 8 11 6v1l-8 1-38 2-17 2-10 1-8 1-18 6v2l-10 4-8-1-9-3-8-1 1-3 2 1-1-3 4-4 2-3 3-3 2-4 4-7 2-1 3-9 5-11 1-7z" fill="#A3E0EE"/>
<path transform="translate(364,425)" d="m0 0h35l1 2 10 1-9 56-2 10-1 1h-36l-2-1-6-28-7-34v-4h6v-2z" fill="#404555"/>
<path transform="translate(1122,155)" d="m0 0 4 1 12 11 10 10 9 14 9 25 4 17-1 2h-7v21l-3 15-6 17-3 7h-2l-2 5-3 6-4 4-5 6-5 5-10 8-13 8-13 5-14 3-9 1h-31l-19-4-13-5-12-6-12-9-1-2 6 2 14 8 17 6 18 3h17l16-3 21-8 13-8 10-8 9-9 10-15 6-12 5-15 2-12 1-19 2-3 6-1-3-17-5-15-5-11-8-16h-2l-5-6v-2l-4-2z" fill="#CC920B"/>
<path transform="translate(416,1199)" d="m0 0 2 1-5 11h111l-5-5-6-5v-2l17 1 19 3 15 5 3 2-1 5-4 3-27 5-27 3-14 1h-63l-31-4-14-4-10-6 1-3 13-5 17-4z" fill="#CC920A"/>
<path transform="translate(300,1199)" d="m0 0 18 1 20 3 15 5 5 3-2 4-8 4-17 4-27 3-22 1h-63l-20-3-17-4-12-5-3-2 2-4 10-4 21-4 2 1-5 6-1 3 110-1-3-5-3-3z" fill="#CC920A"/>
<path transform="translate(1229,566)" d="m0 0h1l2 7 4 35 8 57v3l5 2 3 5-1 5-3 3h-2l3 19v6h-39l2-18 15-109 1-13z" fill="#5C9C7C"/>
<path transform="translate(1210,719)" d="m0 0 3 3v13l2 24-1 13-1 9v8l-1 3v21l3 4-1 13 1 4-2 16-1 2 1 22 2 3v8l-1 5 1 4 1 7-1 7 1 7-3 17-1 1-1 15 2 6v13l1 9 4 18 4 9 1 4-3-3-6-11-9-19-4-7-4-14-1-1 1-10 2-9-1-2-2 8h-2l2-12 3-4 1-7-2-2v-6l1-6 1-5-2-1v-7l1-7h-1v-11l-1-2v-7l2-10 1-18 2-18v-13l1-1 3-24 3-31v-27z" fill="#B9BBB1"/>
<path transform="translate(1024,518)" d="m0 0 12 2 12 6 8 8 6 12 2 8v4h-37l-1-1-2-29-11 3-8 5-6 7-3 6v10l3 11 6 8 7 5 16 4 2 2v5l-5 4-13-2-12-6-8-8-6-11-1-4v-10l2-10 7-14 8-7 10-5z" fill="#414A57"/>
<path transform="translate(703,941)" d="m0 0h11l9 4 7 8 2 5v13l-6 12-9 8-7 3-5 1h-8l-10-4-7-8-2-5v-14l5-10 8-8 8-4z" fill="#FD6C4C"/>
<path transform="translate(838 1e3)" d="m0 0h10l8 4 8 9 2 5v11l-5 11-5 6-12 7-4 1h-12l-10-6-6-9-1-4 1-13 3-6 9-10 9-5z" fill="#6282DA"/>
<path transform="translate(644,819)" d="m0 0h14l8 4 7 8 2 7v9l-4 10-7 8-5 4-8 3h-14l-8-4-6-7-3-10 1-10 5-10 7-7 8-4z" fill="#CB9208"/>
<path transform="translate(620 1e3)" d="m0 0h10l9 5 6 7 2 5v14l-5 10-7 7-8 5-3 1h-13l-9-4-7-8-2-7v-11l4-8 4-6 6-5 5-3z" fill="#5E9C7D"/>
<path transform="translate(560,941)" d="m0 0h12l9 4 5 5 4 7v14l-4 9-7 8-11 6-4 1h-9l-10-4-6-7-3-8v-10l3-8 7-9 11-7z" fill="#6282DA"/>
<path transform="translate(857,819)" d="m0 0h14l8 4 5 6 3 6v13l-4 9-7 8-10 6-3 1h-13l-7-3-8-9-2-6v-12l5-10 8-8 7-4z" fill="#6182DA"/>
<path transform="translate(413,589)" d="m0 0h1v9l-3 24-2 5h-94v-7l6-4 24-8h5v-7l9-1 8-1 4 1h12l15-3 14-7z" fill="#F9F8F7"/>
<path transform="translate(623,459)" d="m0 0 4 1 4 5 6 4-1 4-14 21-12 20-12 23-4 9-2-1-2-5-7-9-9-7-6-2 4-6 9-10 9-11 16-17 9-10z" fill="#8FD4EF"/>
<path transform="translate(1093,518)" d="m0 0h6l2 2 7-1h19l10 4 6 4 8 9 5 10 1 4v8h-10l-4-13-6-8-10-6-5-1h-9l-9 3-9 8-4 8-1 3v9l3 10 5 7 10 6 13 3 2 2v6l-4 3-14-2-13-7-7-8-6-12-1-4v-12l4-13 6-9-1-7 5-5z" fill="#414A57"/>
<path transform="translate(391,552)" d="m0 0 4 1-9 11-4 7 1 3 3 1h8l13-5 9-6h3v11l-4 16h-3l-14 7-15 3h-12l-8-1-8 2h-4v-21l14-1 2-5 9-13 11-8z" fill="#E99245"/>
<path transform="translate(410,428)" d="m0 0h35v1l-12 1 3 3 11 2 4-1 3 2 10-2 1 1-1 15-2 2h-3l-1-6h-2v2h-2l-4-8v-2l-6-1-4 2h-7-1l6 10-1 6-10 10-10 7-4 5-1 4 5 2 5 3v2h2l2 7h-28l11-66z" fill="#5C9C7C"/>
<path transform="translate(1068,233)" d="m0 0h9l7 1 1 4-1 4 1 9 1 8v8l2 16v9l-2 7-6-2-1-2-4-2v-2l-5-2-1-3-4-1-15-33-6-13v-3l2-1z" fill="#4766B4"/>
<path transform="translate(327,495)" d="m0 0h3v11l-8 66-2 8h-16l-2-6-4-43v-18l3 1 4 4 1 4 3-6 8 2 1-6 2-1 2-10h2l1-5z" fill="#4F8064"/>
<path transform="translate(445,428)" d="m0 0h54l2 1v2h-3l-2 5-1 5 1 16-6 12-4 7-9 1h-15l2-26v-16l-10 2-5-2-3 1-10-2-3-2v-2h-5v-1z" fill="#4E7F63"/>
<path transform="translate(1124,711)" d="m0 0h85v8h-255v-1l181-1h-168v-1l-58-1h-4l-8-1h-8l-1-2z" fill="#57866B"/>
<path transform="translate(1168,708)" d="m0 0h42v3l-86 1h-151l-459-1-40-1v-1z" fill="#414C56"/>
<path transform="translate(734,520)" d="m0 0h19l10 4 9 7 7 11 3 10v6h-8l-2-7-5-10-4-5-8-5-9-2-11 1-10 5-6 7-4 9v8l4 12 6 8 9 5 13 3 2 2-1 7-3 2-14-2-12-6-7-7-5-8-3-8v-10l3-13 6-11 9-8z" fill="#424E58"/>
<path transform="translate(640,520)" d="m0 0h19l12 5 10 9 5 10 2 6v8h-8l-4-13-6-8-9-6-11-2-11 2-8 5-6 7-4 9v6l2 7 4 9 7 7 10 4 9 2 2 1 1 5-5 5-13-2-12-6-5-5-6-7-4-10-1-9 4-16 6-10 5-5 9-6z" fill="#424D58"/>
<path transform="translate(828,520)" d="m0 0h18l10 4 8 6 6 7 5 13v8h-8l-3-11-6-9-7-6-10-3h-7l-10 3-6 4-6 7-4 10v5l2 6 4 10 9 8 8 3 10 2 2 3-1 5-4 3-13-2-12-6-9-9-5-10-2-7 1-9 3-12 6-10 9-8z" fill="#424D58"/>
<path transform="translate(996,902)" d="m0 0h131l1 1v8l-4 3h-127l-3-2v-7z" fill="#C1C2C1"/>
<path transform="translate(922,520)" d="m0 0h18l10 4 9 7 7 11 3 9v7l-2 1h-6l-4-14-7-9-8-5-7-2h-8l-10 3-8 6-6 10-1 3v7l4 13 5 7 10 6 13 3 2 2-1 7-6 2-11-2-13-7-8-9-5-10-1-5v-7l4-15 5-9 8-8 10-5z" fill="#424C58"/>
<path transform="translate(1028,839)" d="m0 0h81l27 1v9l-2 2-72 1h-51l-7-1-1-1v-8l1-2z" fill="#C2C3C4"/>
<path transform="translate(548,520)" d="m0 0h18l9 4 8 6 5 6 4 6 3 11v5h-9l-3-13-5-7-6-5-10-4h-11l-9 3-9 8-5 10v10l4 12 7 8 8 4 13 3 2 2v5l-2 3-5 1-14-3-10-6-8-9-5-10-1-3v-10l3-13 5-9 6-7 10-6z" fill="#434B5B"/>
<path transform="translate(1e3 964)" d="m0 0h102l17 1 1 2-1 7-2 2h-130l-1-1v-8l1-2z" fill="#C1C2C2"/>
<path transform="translate(1348,464)" d="m0 0h3l-1 4-26 15-22 13-41 24h-2l2 9-3 7-5 5-5 2-9-1-6-4-4-8 1-10-6-2-15-9-21-12-19-11-12-7v-4l6 2 24 14 28 16 15 9 4-1 5-3 7-1 8 3 4 3 13-8 22-13 15-9 14-8 15-9z" fill="#FD6C4C"/>
<path transform="translate(927,528)" d="m0 0h8l11 4 8 7 5 9 2 6v5l-9 1h-42l-8-1-1-1v-7l5-10 4-5 9-6z" fill="#B9BBB1"/>
<path transform="translate(650,528)" d="m0 0 11 2 9 6 6 7 4 11v4h6v1l-20 1h-34l-11-1-1-1 1-9 5-9 7-7 9-4z" fill="#B9BBB1"/>
<path transform="translate(622,181)" d="m0 0 7 3h14l10 1h21l40 1h122l18-1h18l30 1 2 4-1 1h-282v-9z" fill="#3758B5"/>
<path transform="translate(1113,529)" d="m0 0h9l9 3 8 6 5 7 2 6v7h-56v-9l4-8 7-7 8-4z" fill="#F9FAFA"/>
<path transform="translate(683,285)" d="m0 0h4l-1 5-12 11-8 7-2 4 6-1 14-9h2l-1 5-7 8-9 8-9 6-5 4-2 4h-22l2-6 11-20 9-10 14-9 13-6z" fill="#EA9045"/>
<path transform="translate(941,271)" d="m0 0h6l3 9v3l3 1 2 7 3 6v2l3 1v1l-32 4-11 1v-29l5-2z" fill="#8FD5EF"/>
<path transform="translate(664,715)" d="m0 0 6 1 2-1 3 1 2-1 17 1 124 1v-2l18 1h299l31 1v1l-212 1h-324v-1l33-1z" fill="#44585B"/>
<path transform="translate(561,528)" d="m0 0 8 3 7 4 1 2 5 5 3 5 1 5v7h-49l6-8 11-13z" fill="#8ED4EF"/>
<path transform="translate(326,561)" d="m0 0h48v5l-9 14-2 1-43-1 2-16z" fill="#FAF9F8"/>
<path transform="translate(1019,528)" d="m0 0h5l1 4 2 27-8 1h-18l-6-1v-10l6-10 8-7z" fill="#B9BBB1"/>
<path transform="translate(445,428)" d="m0 0h54l2 1v2h-3l-2 5-1 5 1 16-6 12-4 5-3-6v-16l1-17 5-5-24-1v6l-11 2-5-2-3 1-10-2-3-2v-2h-5v-1z" fill="#528770"/>
<path transform="translate(1168,708)" d="m0 0h42v3l-86 1h-151v-2h-23v-1z" fill="#48615F"/>
<path transform="translate(1024,529)" d="m0 0 9 1 8 4 8 8 4 9 1 7h-27l-1-1z" fill="#5472C7"/>
<path transform="translate(490,714)" d="m0 0 45 1h33l14 1 25-1 15 1h40l1 2-33 1h-147l-3-2 2-2z" fill="#4E8065"/>
<path transform="translate(1273,307)" d="m0 0h20v2h9l20 4 33 11 10 5 1 4 4 7-1 3-6-3-8-5-3-1v-2l-6-2-12-5-5-2v-2l-5-1-18-6-14-3-19-3z" fill="#E99347"/>
<path transform="translate(1229,566)" d="m0 0h1l2 7 4 35 7 50v8l-4-2-2-12-3-19-3-27-2-7-2 6-2 4v-14l2-14 1-13z" fill="#578C74"/>
<path transform="translate(1139,227)" d="m0 0h9l-1 22-3 15-6 16-5 10-5 7-1-2 3-9 6-15 2-8h-2l1-17 1-9 1-2z" fill="#6283D5"/>
<path transform="translate(474,640)" d="m0 0 1 4-6 48-2-3-4 3-5-22-1-7 4-5 11-15zm-2 11 1 2zm-1 5 1 4z" fill="#8FD4EF"/>
<path transform="translate(683,285)" d="m0 0h4l-1 5-12 11-8 7-4 3-1-3 1-3 8-7-1-2-11 6-7 8-3 3v2h-2l-3 10-5 9-5 2-1-3 12-22 9-10 14-9 13-6z" fill="#FD6C4C"/>
<path transform="translate(1348,464)" d="m0 0h3l-1 4-26 15-22 13-41 24h-3l1-4 29-17 20-12 14-8 15-9z" fill="#4262BC"/>
<path transform="translate(649,417)" d="m0 0 12 2 11 3h19l13-4h19l13 4 7 1h10l18-5h17l19 5 6 1v2l-11-1-15-4h-14l-19 5h-15l-19-5h-12l-20 5h-14l-26-6z" fill="#C0C2BE"/>
<path transform="translate(1372,716)" d="m0 0 2 1-6 11-15 23-14 20-9 12-5 5v-5l12-15 18-27 6-11v-3l-4 1-10 6-7 3h-7v2l-3-1v-2l12-4 9-5 10-6 9-4z" fill="#C8C5BF"/>
<path transform="translate(648,372)" d="m0 0 11 1 15 4h15l15-4h20l15 4 11 1 20-5h20l23 6v2l-9-1-21-5-12 1-19 5h-11l-19-5h-16l-20 5h-11l-17-4-10-3z" fill="#C3C5C3"/>
<path transform="translate(664,119)" d="m0 0h203v1l-19 1-38 1h-26l-67-1-53-1z" fill="#6282DB"/>
<path transform="translate(1198,801)" d="m0 0h1l-1 14-8 64-6 44-2 12-2 2-1-5 13-95 4-30z" fill="#BCBEB7"/>
<path transform="translate(577,757)" d="m0 0h3l3 5 2 5 8-10h4v9l-3 13-5 1-1-3 2-5v-4l-5 6-4-2-1-2-2 9-5 1-1-2 3-18z" fill="#3E5DB7"/>
<path transform="translate(1157,475)" d="m0 0 6 2 24 14 28 16 17 10-1 3-5-1-19-11-17-10-21-12-12-7z" fill="#4060BB"/>
<path transform="translate(718,757)" d="m0 0 4 1v10l5-5 3-1 2 6 4-10 4-1 1 3-7 19-4 1-1-1v-6l-3 1-4 6h-4l-1-11v-11z" fill="#3E5CB3"/>
<path transform="translate(639,540)" d="m0 0h2l1 3 8 3 5 3-4 3-3 4h7l-2 3h-16l-4-2-5-1-1-4 8-9z" fill="#C2C3C4"/>
<path transform="translate(1232,360)" d="m0 0h26l17 2 4 2-1 3h-37l-13 1-3-2 1-4z" fill="#C5C7C8"/>
<path transform="translate(297,427)" d="m0 0 3 1 37 1-5 4-8 6-3 3-4-1-2-3-9-1-2-1-2-5-3-1-1 4-3-1-2-5z" fill="#528770"/>
<path transform="translate(840,1020)" d="m0 0h11l1 5h-8v2l6 1 2 2v6l-7 6-6-1-3-3 1-9z" fill="#E6F4F9"/>
<path transform="translate(1221,625)" d="m0 0h2v13l-1 2-1 13-2 6v11l-2 6v11l-1 7-1 1 1 7 2 4h6v1l-14 1 2-18z" fill="#548C73"/>
<path transform="translate(888,712)" d="m0 0h81l21 1-2 2h-81-3l-7-1h-8z" fill="#5D9D7D"/>
<path transform="translate(512,757)" d="m0 0 7 1 4 4v2l-12-1-1 3 10 2 3 3-2 5-5 4h-8l-5-4v-3l6 1 8 1v-4h-7l-5-4 1-6z" fill="#3E5EB9"/>
<path transform="translate(940,757)" d="m0 0h6l6 5v2l-12-1-1 3 9 2 3 2-1 6-3 3-3 1h-7l-5-3v-4l5 1 6 1 2-1v-2l-8-2-3-2v-6z" fill="#3E5EB8"/>
<path transform="translate(692,1083)" d="m0 0h5l4 4v7l-4 7-2 1h-6l-3-4v-7l4-7z" fill="#F2F3F2"/>
<path transform="translate(639,472)" d="m0 0 5 2 8 5 9 5v2h-3v2l-6 1 2 2 8 1 1 2-1 3-9-3-12-6v-1l5-1-5-4-2-7z" fill="#C2C3C3"/>
<path transform="translate(684,302)" d="m0 0h2l-1 5-7 8-9 8-9 6-5 4-2 4h-5l-1-2 1-2h2v-2l6-4 4-1 8-10 2-5z" fill="#FD6D4C"/>
<path transform="translate(849,959)" d="m0 0h6l3 4-1 11-5 4-7-1-2-3 1-11h2l1-3z" fill="#B3BABB"/>
<path transform="translate(710,957)" d="m0 0 3 1-2 6 4 3 1 5-5 6-7 1-5-5 1-6z" fill="#FCF4EE"/>
<path transform="translate(636,897)" d="m0 0h6l3 4-1 11-3 3-8 1-3-3v-5l1-1 1-7z" fill="#84988F"/>
<path transform="translate(785,897)" d="m0 0h7l3 5-2 10-5 4-6-1-2-4 1-8 3-5z" fill="#F0F1F0"/>
<path transform="translate(549,1083)" d="m0 0 7 1 1 6-1 3 1 4-4 5-5 1-5-3-1-5 3-1-1-6z" fill="#4C6163"/>
<path transform="translate(326,561)" d="m0 0h48l-1 3-10 2h-31l-7-2z" fill="#DBE1E3"/>
<path transform="translate(823,1020)" d="m0 0h7l4 5-1 4-5 5-2 3 6-1v5h-15v-4l4-4 7-5 1-3-10 4-1-4z" fill="#E7F3F7"/>
<path transform="translate(872,229)" d="m0 0h3l-1 6-7 7-7 8-4 3-12-13-1-3 5-1 9 10 4-6z" fill="#588B73"/>
<path transform="translate(874,757)" d="m0 0 7 1-1 4-2 1h-8v4h9l-1 5h-10v7l-1 1h-5l2-20 1-2z" fill="#3F5EB6"/>
<path transform="translate(1191,711)" d="m0 0 14 1 2 2-10 2-17-1h-41l-1-3z" fill="#51866F"/>
<path transform="translate(1166,390)" d="m0 0h7l4 4 1 5-4 6-2 1h-6l-5-5v-6z" fill="#3E5EB7"/>
<path transform="translate(1371,443)" d="m0 0h6l4 4 1 7-5 5h-7l-4-5v-6z" fill="#3C5CB8"/>
<path transform="translate(1317,388)" d="m0 0h5l5 5v7l-5 4h-6l-5-5v-6z" fill="#3A5AB7"/>
<path transform="translate(1316,648)" d="m0 0h6l4 4 1 7-5 5h-7l-4-4v-7z" fill="#3A5AB7"/>
<path transform="translate(1371,593)" d="m0 0 7 1 4 5-1 7-4 3h-7l-4-4v-7z" fill="#3B5CB8"/>
<path transform="translate(1112,444)" d="m0 0h6l5 4v8l-5 4h-6l-5-6v-5z" fill="#405FB8"/>
<path transform="translate(1240,370)" d="m0 0h7l5 6v5l-6 5h-6l-4-5v-7z" fill="#3A5BB8"/>
<path transform="translate(628,1020)" d="m0 0 7 1 3 4-1 4-6 8h6l-1 4h-15l1-5 10-8 1-3-5 2-4 2-1-4z" fill="#EFF1F0"/>
<path transform="translate(862,834)" d="m0 0h4v12h2l-1 5-3 3h-4v-3h-8l-1-5 9-10h2z" fill="#E7F1F8"/>
<path transform="translate(1391,518)" d="m0 0 7 1 4 4v7l-5 4h-6l-5-5v-6z" fill="#3C5CB8"/>
<path transform="translate(871,275)" d="m0 0h5l-1 4-8 8-7 8-4 3-8-8-5-6v-2l5-1 7 9h4l2-4 9-9z" fill="#54876F"/>
<path transform="translate(567,958)" d="m0 0h4v11l2 1-1 4-4 4-4-1v-3h-8v-5z" fill="#ECF3F8"/>
<path transform="translate(872,320)" d="m0 0h4l-1 4-8 8-7 8-3 3-3-1-7-8-4-6 4-2 8 9v2l6-5 7-8z" fill="#50826B"/>
<path transform="translate(609,1020)" d="m0 0 7 1 3 3v5l-7 8h6l-1 4h-14v-4l11-10-4-1-2 2h-3l1-5 3-1z" fill="#EFF0F0"/>
<path transform="translate(328,501)" d="m0 0h1v13l-5 41-2 7h-1v-13l2-27 3-19z" fill="#44545A"/>
<path transform="translate(449,434)" d="m0 0 5 2 10-2 1 1-1 15-2 2h-3l-1-6h-2v2h-2l-4-8v-2l-5-1-1-2z" fill="#5D9D7D"/>
<path transform="translate(906,713)" d="m0 0 1 2 6-1 55 1-1 2h-94l2-2h27l3 1z" fill="#4F8167"/>
<path transform="translate(1057,234)" d="m0 0h6l4 4-5 4-7 1v6l-5-4v-2l-5-2-1-5 2-1z" fill="#3958AF"/>
<path transform="translate(649,758)" d="m0 0h18v4h-7l-1 13-1 4-5 1-1-2 2-15-6-1z" fill="#3D5DB8"/>
<path transform="translate(1146,305)" d="m0 0v3l-1 5 3 3 1 7h-7l-11-2 1-3 2 1-1-3 4-4 2-3 3-3z" fill="#92D5ED"/>
<path transform="translate(792,758)" d="m0 0h18l-1 4-6 1-2 16-1 1h-5l2-18h-6z" fill="#3B5BB6"/>
<path transform="translate(1168,708)" d="m0 0h42v3h-64l2-2z" fill="#475B5F"/>
<path transform="translate(873,821)" d="m0 0 5 1 6 7 3 6v13l-4 9-7 8-10 6h-5l5-4 10-7 8-11 1-3v-7l-4-8-5-6v-2l-3-1z" fill="#5573C9"/>
<path transform="translate(606,715)" d="m0 0 16 1h40l1 2-45 1-36-1 1-2z" fill="#4E7F63"/>
<path transform="translate(649,417)" d="m0 0 12 2 11 3h19l9-3 8 1v1l-20 5h-14l-26-6z" fill="#C7CAC9"/>
<path transform="translate(577,944)" d="m0 0 4 1 5 5 4 7v14l-4 9-7 8-7 4-3-1h2l2-4 7-5 4-5h2l1-6 1-7-3-9-8-10z" fill="#5674CA"/>
<path transform="translate(621,1083)" d="m0 0h5l3 3-1 6-8 10-3-1 4-4-5-4-1-4 2-4z" fill="#43505A"/>
<path transform="translate(709,896)" d="m0 0 6 2 1 7-8 10-3 1 2-4 2-3-6-2-1-4 3-5z" fill="#4C6A66"/>
<path transform="translate(918,1021)" d="m0 0 2 1-4 5 6 3v6l-4 4h-6l-4-5 2-5z" fill="#F1F2F1"/>
<path transform="translate(401,591)" d="m0 0h7l1 2-11 5-15 3h-8l3-4 21-5z" fill="#FD6C4C"/>
<path transform="translate(549,958)" d="m0 0h5l-1 13-2 7h-4v-8l2-5-3 2h-4l1-5z" fill="#E7F3F7"/>
<path transform="translate(920,959)" d="m0 0h6l3 3v5l-6 7-7-6 1-7z" fill="#EEEFEE"/>
<path transform="translate(738,757)" d="m0 0 3 1-3 11-4 10-4 1-1-1v-6l-2-1h2l1-6 2 2 4-10z" fill="#415EB1"/>
<path transform="translate(638,1011)" d="m0 0 4 2 4 6 1 3v14l-5 10-7 7-4 1 3-5 6-7 4-9v-10l-4-7-2-2z" fill="#52876F"/>
<path transform="translate(593,757)" d="m0 0h4v9l-3 13-5 1-1-3 2-5 1-8-4 2 2-4z" fill="#4866B9"/>
<path transform="translate(692,958)" d="m0 0h5l-2 19-5 1 1-12-6 1 1-4z" fill="#FDF4ED"/>
<path transform="translate(776,1021)" d="m0 0h2v8l-2 5 4 1-5 5h-2l2-5-4 1-7-1 6-8z" fill="#E8E9E8"/>
<path transform="translate(391,552)" d="m0 0 4 1-8 10h-6l-8 7-2 5-5 3 2-5 8-11 11-8z" fill="#FD6D4C"/>
<path transform="translate(648,834)" d="m0 0 4 1-1 11-1 7-5 1 1-9 1-4-6 2v-4z" fill="#FDF0D9"/>
<path transform="translate(818,715)" d="m0 0 14 1v2l-2 1h-91v-1h79z" fill="#4E7F63"/>
<path transform="translate(633,958)" d="m0 0h11v3l-10 1v3h5v2l4 2-1 5-5 4-6-1-2-4 3 1v2l7-2 1-5h-6-4l1-8z" fill="#9AB4A6"/>
<path transform="translate(697,1020)" d="m0 0h12l1 3h-2l-2 4v3l2 2-1 5-4 3h-6l-3-2 1-3 3 3 7-1v-6l-6 1 2-5h2v-4l-7 1z" fill="#ADBBB3"/>
<path transform="translate(1352,388)" d="m0 0 5 2 8 7 10 10 9 11 6 8v2h2l3 7h-2l-9-13-11-13-15-15-6-5z" fill="#5776CC"/>
<path transform="translate(770,373)" d="m0 0h20l23 6v2l-9-1-21-5-12 1-11 3h-5l1-2z" fill="#A5B3C1"/>
<path transform="translate(771,418)" d="m0 0h17l19 5 6 1v2l-11-1-15-4h-14l-12 2v-2z" fill="#BDC1BC"/>
<path transform="translate(1186,893)" d="m0 0h1v9l-3 21-2 12-2 2-1-5 5-36z" fill="#BCBEB7"/>
<path transform="translate(1234,375)" d="m0 0h1l2 6 3 4h6l7-5-1 7-7 5-6-1-4-6-2-7z" fill="#F7F7F7"/>
<path transform="translate(557,942)" d="m0 0h5l-3 3-9 5-4 4v7l-7 4-1-6 8-10z" fill="#5776CA"/>
<path transform="translate(849,959)" d="m0 0h6l3 4-2 5-2 1h-7l-2-1 1-7z" fill="#A0AAAA"/>
<path transform="translate(1364,720)" d="m0 0 3 1-8 4-5 5-14 7h-7v2l-3-1v-2l12-4 9-5 10-6z" fill="#C4C3BF"/>
<path transform="translate(1198,801)" d="m0 0h1l-1 14-4 34-3 1 1-13 4-30z" fill="#BEC0BA"/>
<path transform="translate(416,564)" d="m0 0v3l-5 7-8 4-8 1-4-2 3-2 13-5z" fill="#FD6C4C"/>
<path transform="translate(969,712)" d="m0 0h36l16 1-1 2h-32v-1l-19-1z" fill="#528770"/>
<path transform="translate(753,1021)" d="m0 0 6 1 2 5-6 8-2 2 7 1-1 2h-14l5-6 7-5 1-6-6 2-4 2 2-4z" fill="#496161"/>
<path transform="translate(602,1083)" d="m0 0h5l3 4-2 6-6 6 7 1-1 2h-13l2-4 9-7 1-6-6 2-4 2 2-4z" fill="#45565C"/>
<path transform="translate(692,1083)" d="m0 0h5l4 4v7l-4 7-2 1h-6l-3-4v-7l4-7zm0 2-4 6v7l5 3 5-5 1-7-1-3z" fill="#4D5D62"/>
<path transform="translate(382,655)" d="m0 0 6 1 2 2v6l-2 2h-6l-2-2v-7z" fill="#3859B5"/>
<path transform="translate(822,1013)" d="m0 0 2 1 1 5-7 8-4 4-2 3v-7l3-6z" fill="#5877CB"/>
<path transform="translate(1273,307)" d="m0 0h20v2h9l7 1 2 3h-9l-29-5z" fill="#D89223"/>
<path transform="translate(1093,518)" d="m0 0h6l4 4-10 5-3 1-1 2-2-2 1-5z" fill="#3D5EB9"/>
<path transform="translate(857,819)" d="m0 0h11v1l-10 2-12 6-9 11-2 2 1-6 7-8 8-6z" fill="#5878CA"/>
<path transform="translate(1344,761)" d="m0 0v3l-13 18-5 6-1-3 2-4 12-16 2-3z" fill="#D4C7BD"/>
<path transform="translate(642,491)" d="m0 0 6 1 6 4 2 2-1 2-11-2-9 1 3-4h2z" fill="#C3C4C5"/>
<path transform="translate(648,372)" d="m0 0 11 1 15 4 13 1v1l-18 1-21-6z" fill="#C4C7C5"/>
<path transform="translate(785,897)" d="m0 0h7l3 5-2 10-5 4-6-1-2-4 1-8 3-5zm2 1-4 4-1 9 2 3h5l3-4 1-7-3-5z" fill="#44535B"/>
<path transform="translate(718,834)" d="m0 0 4 1 3 3v4l-10 8-1 2 9-1v3h-14l2-4 11-9v-3l-4-1-6 3v-2z" fill="#4F6264"/>
<path transform="translate(1128,393)" d="m0 0h3l-2 4-8 7-7 7-4 5h-2v-3h2l1-4 12-12h2v-2h3z" fill="#5574C9"/>
<path transform="translate(1130,319)" d="m0 0 2 4-7 6-10 5-7 4-4 1v-2l12-7 13-10z" fill="#C3C3C1"/>
<path transform="translate(704,373)" d="m0 0h16v1l-12 1-17 5-5 1h-11v-2l12-1z" fill="#BEC0BA"/>
<path transform="translate(512,757)" d="m0 0 7 1 4 4v2l-12-1-5 2 1-5z" fill="#3E5AA7"/>
<path transform="translate(356,344)" d="m0 0 6 1 3 2-1 2-7-1h-3v10l3 6 6 3-4 1-5-3-3-6v-9z" fill="#F6C271"/>
<path transform="translate(928,835)" d="m0 0h11v1l-9 1-2 5h7l3 3-1 6-4 3-7-1-2-4 4 2h5l2-2v-4l-6-1h-3z" fill="#46595D"/>
<path transform="translate(708,898)" d="m0 0 5 1 1 1v5l-3 3-5-1-2-1 1-5z" fill="#EDEEED"/>
<path transform="translate(622,959)" d="m0 0h3l-2 19-5-1 2-10 2-5-7 4 2-4z" fill="#6A9282"/>
<path transform="translate(564,896)" d="m0 0h10l-2 6-8 13h-3l8-13 1-3h-10v-2z" fill="#485F60"/>
<path transform="translate(1244,668)" d="m0 0 5 2 3 5-1 5-3 3h-2z" fill="#3E5DB7"/>
<path transform="translate(620,1085)" d="m0 0h5l2 2-1 5-3 3-5-2-1-5z" fill="#F2F2F2"/>
<path transform="translate(918,1021)" d="m0 0 2 1-4 5 6 3v6l-4 4h-6l-4-5 2-5zm-4 8-4 4 2 5 4 1 5-5-2-4z" fill="#44545B"/>
<path transform="translate(700,419)" d="m0 0 8 1v1l-20 5h-13v-2l16-2z" fill="#C3C4C3"/>
<path transform="translate(354,594)" d="m0 0 8 1 4 2v2l-11 3h-3l1-7z" fill="#FD6D4C"/>
<path transform="translate(352,581)" d="m0 0h12l-2 4-9 5-1-1z" fill="#FE6C4D"/>
<path transform="translate(662,331)" d="m0 0 13 1h20l-1 2-4 1h-17l-10-2z" fill="#A8B8B4"/>
<path transform="translate(541,1021)" d="m0 0h5l3 3v5l-13 11h-2l2-4 10-8v-3l-4-1-4 3h-2l2-4z" fill="#53826E"/>
<path transform="translate(1213,695)" d="m0 0h1l2 7 2 4h6v1l-14 1 1-11z" fill="#538971"/>
<path transform="translate(396,561)" d="m0 0h16l-1 3-5 1h-13l-2-2z" fill="#DBE1E3"/>
<path transform="translate(577,944)" d="m0 0 4 1 5 5 4 7v8l-2-1-3-9-8-10z" fill="#5D79C7"/>
<path transform="translate(547,1093)" d="m0 0h7l1 4-4 4-5-1-2-4z" fill="#EDEEED"/>
<path transform="translate(530,1083)" d="m0 0h5l3 4-1 4-12 11h-2l2-4 9-7 1-4-5-1-3 3h-2l2-4z" fill="#45525B"/>
<path transform="translate(896,1021)" d="m0 0h5l3 4-1 4-10 9-1 2h-3l2-4 10-8-1-4-5 1-4 2 1-3z" fill="#46595D"/>
<path transform="translate(681,1021)" d="m0 0h5l3 3-1 6-10 8-1 2-3-1 13-12v-2l-5-1-5 3 1-4z" fill="#4E6E66"/>
<path transform="translate(920,959)" d="m0 0h6l3 3v5l-6 7-7-6 1-7zm1 1-3 3-1 4 4 3 4-1 2-2v-5l-3-2z" fill="#44525A"/>
<path transform="translate(931,896)" d="m0 0 5 2 2 5-5 5-6 5-3 3-1-3 11-9 1-5-6 1-4 3 2-4z" fill="#46585D"/>
<path transform="translate(655,553)" d="m0 0h18v5l-6 1-2-1v-2l-9-1z" fill="#C2C3C4"/>
<path transform="translate(1380,426)" d="m0 0 2 1 2 4v3h2v4l-12-4 4-4z" fill="#EAF7FC"/>
<path transform="translate(1355,743)" d="m0 0 1 4-10 14-4 1 5-9 7-9z" fill="#CEC6BE"/>
<path transform="translate(602,550)" d="m0 0h3l2 3-1 5 2 1h-12l3-4 2-3z" fill="#C2C3C3"/>
<path transform="translate(638,1011)" d="m0 0 4 2 4 6 1 3v14l-2-3-2-13-5-6z" fill="#52886F"/>
<path transform="translate(852,1008)" d="m0 0 5 2 7 8 1 3v8h-1l-2-7-7-9-3-3z" fill="#5775C9"/>
<path transform="translate(847,896)" d="m0 0h2v10l-2 10-3-1 2-11v-4l-5 4v-3z" fill="#536969"/>
<path transform="translate(1278,839)" d="m0 0 2 1-5 7-5 6-2 3-1-12 1 2h5l2-4z" fill="#C2C0B3"/>
<path transform="translate(1365,329)" d="m0 0 7 4v13l-4-3 1-3-5-8z" fill="#E0CC9E"/>
<path transform="translate(648,282)" d="m0 0h7l18 5 2 2-4 1-9-3-14-3z" fill="#B1BAB2"/>
<path transform="translate(917,896)" d="m0 0 2 2-3 18h-3l3-16-5 4h-2l2-4z" fill="#4E6564"/>
<path transform="translate(1221,625)" d="m0 0h2v13l-4 14h-1l1-13z" fill="#569075"/>
<path transform="translate(637,907)" d="m0 0 5 1-1 5-7 1-2-1v-4z" fill="#F6F6F6"/>
<path transform="translate(873,821)" d="m0 0 5 1 6 7 3 6v2l-3-1-4-6-4-5v-2l-3-1z" fill="#5E7AC9"/>
<path transform="translate(770,373)" d="m0 0h15v1l-18 3-7 2h-5l1-2z" fill="#92AFA3"/>
<path transform="translate(844,236)" d="m0 0h4l2 6 4 5 3 3v3l-6-5-8-10z" fill="#4E7B66"/>
<path transform="translate(629,1025)" d="m0 0h4l-1 4-9 7-1-3 2-4z" fill="#538A72"/>
<path transform="translate(561,1021)" d="m0 0 3 1-3 18-3-1 3-15-5 2z" fill="#548570"/>
<path transform="translate(909,958)" d="m0 0h1l-1 15-1 5h-2l1-10 1-6-5 4h-2l2-4z" fill="#45585D"/>
<path transform="translate(774,896)" d="m0 0h1v8l-2 12h-3l3-14 1-3-5 4-3-1z" fill="#52786C"/>
<path transform="translate(636,898)" d="m0 0h5l1 1v5l-8 1v-5z" fill="#F1F1F0"/>
<path transform="translate(379,627)" d="m0 0h13l-4 5h-6l-3-3z" fill="#3859B5"/>
<path transform="translate(412,361)" d="m0 0 3 3v13l-4-3z" fill="#F97554"/>
<path transform="translate(549,1085)" d="m0 0h5l1 5-4 2h-4v-5z" fill="#F2F2F1"/>
<path transform="translate(634,898)" d="m0 0 2 1-2 6h8l-1 2-9 2-1 3-1-4 1-1 1-7z" fill="#80A191"/>
<path transform="translate(676,1092)" d="m0 0 4 2-1 5-5 4-5-1-4-4h3l3 2 4-1 2-4z" fill="#485B61"/>
<path transform="translate(777,1025)" d="m0 0 1 4-2 5 4 1-5 5h-2l2-5-4 1-3-2 6-2z" fill="#637E78"/>
<path transform="translate(1292,827)" d="m0 0v3l-14 15-4 2 6-8z" fill="#F9D6BF"/>
<path transform="translate(1116,416)" d="m0 0 1 4 7 3v2l-9 1-2-4z" fill="#EAF7FC"/>
<path transform="translate(736,378)" d="m0 0h19l2 2-5 1h-11l-5-1z" fill="#BEC2C3"/>
<path transform="translate(634,966)" d="m0 0 7 1 2 2-1 5-5 4-6-1-2-4 3 1v2l7-2 1-5-6-2z" fill="#547E6E"/>
<path transform="translate(818,715)" d="m0 0 14 1v2l-2 1h-13z" fill="#4C7961"/>
<path transform="translate(757,422)" d="m0 0 5 1-4 2-4 1h-15v-1z" fill="#C4C6C4"/>
<path transform="translate(785,897)" d="m0 0h2l-4 8v6l2 5-4-2-1-8 3-7z" fill="#496362"/>
<path transform="translate(1304,811)" d="m0 0 1 4-9 10-1-2 4-7z" fill="#DFCBBC"/>
<path transform="translate(689,377)" d="m0 0 6 1-4 2-5 1h-11v-2l12-1z" fill="#C2C5C1"/>
<path transform="translate(845,326)" d="m0 0 4 2 2 4-2 4-6-8z" fill="#54876B"/>
<path transform="translate(706,968)" d="m0 0 5 1-1 5-5 1-1-5z" fill="#FD6D4C"/>
<path transform="translate(558,962)" d="m0 0 3 1-2 4-4 6h-1v-10z" fill="#5574C9"/>
<path transform="translate(1192,849)" d="m0 0h1l-1 15-3 1 1-13z" fill="#BDBFB8"/>
<path transform="translate(792,844)" d="m0 0 3 1v5l-5 4-7-1-2-4 4 2h6l1-1z" fill="#485860"/>
<path transform="translate(795,421)" d="m0 0 8 1 10 2v2l-11-1-7-2z" fill="#ADB7BA"/>
<path transform="translate(704,1030)" d="m0 0 4 2-1 5-4 3h-6l-3-2 1-3 3 3 7-1z" fill="#485E60"/>
<path transform="translate(352,354)" d="m0 0 5 10 6 3-4 1-5-3-3-6z" fill="#F8C471"/>
<path transform="translate(871,275)" d="m0 0h5l-1 4-3 3h-4l1-4z" fill="#547D6B"/>
<path transform="translate(706,1022)" d="m0 0 3 1-4 6-1 2-5 1 2-5h2l2-4z" fill="#819490"/>
<path transform="translate(631,961)" d="m0 0 3 2v2h5l-2 3-6 2-1-1z" fill="#C0C2BE"/>
<path transform="translate(644,1033)" d="m0 0h2v6l-3 6-3-1z" fill="#51856B"/>
<path transform="translate(620,967)" d="m0 0 3 2v9l-5-1z" fill="#ABB9B0"/>
<path transform="translate(648,372)" d="m0 0 11 1 3 2v2l-7-1-7-2z" fill="#CACDCD"/>
<path transform="translate(692,1083)" d="m0 0h5l3 3v7l-2-4v-3h-6l-4 2 2-4z" fill="#414A57"/>
<path transform="translate(757,1031)" d="m0 0m-1 1m-2 1 2 1-3 3 7 1-1 2h-11z" fill="#9CB1A7"/>
<path transform="translate(643,908)" d="m0 0 1 4-3 3-8 1-3-3 1-4 1 3 7 1 2-1z" fill="#50736A"/>
<path transform="translate(727,533)" d="m0 0 2 1-7 8h-2l-2 5-1-3 6-8z" fill="#C0C1BF"/>
<path transform="translate(1117,329)" d="m0 0 2 1-5 5-8 4h-2v-2l12-7z" fill="#C4C2BC"/>
<path transform="translate(838,1032)" d="m0 0h9l-1 4-4 1-4-4z" fill="#5876CD"/>
<path transform="translate(564,896)" d="m0 0h10l-3 1-1 3-10-1v-2z" fill="#99AFA6"/>
<path transform="translate(603,1095)" d="m0 0 2 1-3 3 7 1-1 2h-11z" fill="#8F979A"/>
<path transform="translate(776,1021)" d="m0 0h2l-1 3-7 6-3 5-3-1 11-12z" fill="#496362"/>
<path transform="translate(825,1025)" d="m0 0h4l-1 4-3 2-5-1z" fill="#5775CB"/>
<path transform="translate(837,962)" d="m0 0 1 4-2 12h-3l2-11z" fill="#4C6E67"/>
<path transform="translate(862,900)" d="m0 0h2l-2 15-3 1 2-13z" fill="#4A6763"/>
<path transform="translate(623,416)" d="m0 0h2l-1 6h-2l-2 5h-2l2-7z" fill="#5B8F77"/>
<path transform="translate(401,386)" d="m0 0h13v2l-2 1h-8z" fill="#FA704F"/>
<path transform="translate(610,1025)" d="m0 0 5 1-5 6h-2l-1-3z" fill="#538A72"/>
<path transform="translate(1364,720)" d="m0 0 3 1-15 8-2-1 9-6z" fill="#B9BBB1"/>
<path transform="translate(1245,683)" d="m0 0h1l1 5v9l-3-1-1-6z" fill="#538971"/>
<path transform="translate(872,320)" d="m0 0h4l-1 3v-2l-5 5-6 5-2-1z" fill="#578B6F"/>
<path transform="translate(891,713)" d="m0 0h10l4 2-4 1h-10z" fill="#528770"/>
<path transform="translate(1220,646)" d="m0 0h1v7l-2 6h-2v-6z" fill="#548B72"/>
<path transform="translate(297,427)" d="m0 0 5 2-3 1-1 4-3-1-2-5z" fill="#568E76"/>
<path transform="translate(688,332)" d="m0 0h7l-1 2-4 1h-10l1-2z" fill="#A8B8AD"/>
<path transform="translate(1324,788)" d="m0 0v3l-9 11v-3l1-4h3l2-4z" fill="#EED2BF"/>
<path transform="translate(1349,752)" d="m0 0 1 3-4 6-4 1 5-9z" fill="#D2C7BF"/>
<path transform="translate(392,326)" d="m0 0 4 1-7 7-4 2 2-4z" fill="#F8C370"/>
<path transform="translate(1318,318)" d="m0 0 6 1 5 2-4 3-5-2z" fill="#7E91C3"/>
<path transform="translate(924,849)" d="m0 0 4 2h5l4-1-4 4-7-1z" fill="#485F60"/>
<path transform="translate(1291,826)" d="m0 0 2 1-11 11-2-1 7-8z" fill="#BCBEB8"/>
<path transform="translate(1333,776)" d="m0 0v3l-7 9-1-3 2-4 3-1z" fill="#E8CDBB"/>
<path transform="translate(1229,572)" d="m0 0 2 4-1 10-2 2v-9z" fill="#4E8065"/>
<path transform="translate(1365,329)" d="m0 0 5 3v5l-4-2-2-5z" fill="#BBBBB0"/>
<path transform="translate(1302,310)" d="m0 0h7l2 3h-9l-4-2z" fill="#D7921F"/>
<path transform="translate(918,1028)" d="m0 0 4 2v6l-4 4-4-1 5-3 1-3z" fill="#424B57"/>
<path transform="translate(713,851)" d="m0 0h10v3h-14z" fill="#98A19E"/>
<path transform="translate(700,419)" d="m0 0 8 1v1l-12 2-2-2z" fill="#C7C9C9"/>
<path transform="translate(873,321)" d="m0 0h2l-1 4-6 6-2-1z" fill="#45575C"/>
<path transform="translate(678,1083)" d="m0 0h3l-1 3-3 3-1 3-5 1 6-8z" fill="#45555C"/>
<path transform="translate(544,1030)" d="m0 0 2 1-10 9h-2l2-4z" fill="#45555C"/>
<path transform="translate(684,1030)" d="m0 0h2v2l-8 6-1 2-3-1z" fill="#44515A"/>
<path transform="translate(384,1170)" d="m0 0h1l-1 7h-2z" fill="#8FD5F0"/>
<path transform="translate(390,1170)" d="m0 0h2v2l2 1-4 1z" fill="#8FD5F0"/>
<path transform="translate(243,1038)" d="m0 0 3 3-2 3z" fill="#8FD5F0"/>
<path transform="translate(237,1042)" d="m0 0 1 4h-2z" fill="#8FD5F0"/>
<path transform="translate(391,1175)" d="m0 0h2l-1 3z" fill="#8FD5F0"/>
<path transform="translate(233,1051)" d="m0 0 2 2h-3z" fill="#8FD5F0"/>
<path transform="translate(408,1184)" d="m0 0 3 2h-3z" fill="#8FD5F0"/>
<path transform="translate(393,1181)" d="m0 0h2l-1 3z" fill="#8FD5F0"/>
<path transform="translate(378,1156)" d="m0 0 3 1h-3z" fill="#8FD5F0"/>
<path transform="translate(255,1045)" d="m0 0 3 1h-3z" fill="#8FD5F0"/>
<path transform="translate(247,1041)" d="m0 0v3z" fill="#8FD5F0"/>
<path transform="translate(405,1182)" d="m0 0 2 1-2 1z" fill="#8FD5F0"/>
<path transform="translate(255,1021)" d="m0 0h2l-1 2z" fill="#8FD5F0"/>
<path transform="translate(413,1197)" d="m0 0 2 1z" fill="#8FD5F0"/>
<path transform="translate(401,1186)" d="m0 0 2 1z" fill="#8FD5F0"/>
<path transform="translate(411,1184)" d="m0 0 2 1z" fill="#8FD5F0"/>
<path transform="translate(404,1179)" d="m0 0" fill="#8FD5F0"/>
<path transform="translate(405,1177)" d="m0 0" fill="#8FD5F0"/>
<path transform="translate(389,1168)" d="m0 0" fill="#8FD5F0"/>
<path transform="translate(384,1162)" d="m0 0" fill="#8FD5F0"/>
<path transform="translate(373,1151)" d="m0 0 2 1z" fill="#8FD5F0"/>
<path transform="translate(241,1080)" d="m0 0" fill="#8FD5F0"/>
<path transform="translate(238,1076)" d="m0 0 2 1z" fill="#8FD5F0"/>
<path transform="translate(244,1062)" d="m0 0 2 1z" fill="#8FD5F0"/>
<path transform="translate(250,1059)" d="m0 0" fill="#8FD5F0"/>
<path transform="translate(257,1047)" d="m0 0" fill="#8FD5F0"/>
<path transform="translate(236,1048)" d="m0 0 2 1z" fill="#8FD5F0"/>
<path transform="translate(249,1045)" d="m0 0" fill="#8FD5F0"/>
<path transform="translate(239,1042)" d="m0 0" fill="#8FD5F0"/>
<path transform="translate(244,1037)" d="m0 0 2 1z" fill="#8FD5F0"/>
<path transform="translate(407,1187)" d="m0 0" fill="#8FD5F0"/>
<path transform="translate(397,1182)" d="m0 0" fill="#8FD5F0"/>
<path transform="translate(402,1181)" d="m0 0" fill="#8FD5F0"/>
<path transform="translate(407,1180)" d="m0 0" fill="#8FD5F0"/>
<path transform="translate(386,1180)" d="m0 0" fill="#8FD5F0"/>
<path transform="translate(400,1179)" d="m0 0" fill="#8FD5F0"/>
<path transform="translate(401,1178)" d="m0 0" fill="#8FD5F0"/>
<path transform="translate(387,1178)" d="m0 0" fill="#8FD5F0"/>
<path transform="translate(395,1176)" d="m0 0" fill="#8FD5F0"/>
<path transform="translate(386,1176)" d="m0 0" fill="#8FD5F0"/>
<path transform="translate(396,1175)" d="m0 0" fill="#8FD5F0"/>
<path transform="translate(388,1175)" d="m0 0" fill="#8FD5F0"/>
<path transform="translate(389,1174)" d="m0 0" fill="#8FD5F0"/>
<path transform="translate(388,1172)" d="m0 0" fill="#8FD5F0"/>
<path transform="translate(388,1170)" d="m0 0" fill="#8FD5F0"/>
<path transform="translate(393,1168)" d="m0 0" fill="#8FD5F0"/>
<path transform="translate(386,1164)" d="m0 0" fill="#8FD5F0"/>
<path transform="translate(366,1144)" d="m0 0" fill="#8FD5F0"/>
<path transform="translate(365,1143)" d="m0 0" fill="#8FD5F0"/>
<path transform="translate(364,1142)" d="m0 0" fill="#8FD5F0"/>
<path transform="translate(361,1139)" d="m0 0" fill="#8FD5F0"/>
<path transform="translate(360,1138)" d="m0 0" fill="#8FD5F0"/>
<path transform="translate(292,1133)" d="m0 0" fill="#8FD5F0"/>
<path transform="translate(239,1078)" d="m0 0" fill="#8FD5F0"/>
<path transform="translate(237,1077)" d="m0 0" fill="#8FD5F0"/>
<path transform="translate(236,1073)" d="m0 0" fill="#8FD5F0"/>
<path transform="translate(234,1071)" d="m0 0" fill="#8FD5F0"/>
<path transform="translate(239,1063)" d="m0 0" fill="#8FD5F0"/>
<path transform="translate(234,1063)" d="m0 0" fill="#8FD5F0"/>
<path transform="translate(234,1059)" d="m0 0" fill="#8FD5F0"/>
<path transform="translate(236,1057)" d="m0 0" fill="#8FD5F0"/>
<path transform="translate(245,1051)" d="m0 0" fill="#8FD5F0"/>
<path transform="translate(255,1050)" d="m0 0" fill="#8FD5F0"/>
<path transform="translate(244,1050)" d="m0 0" fill="#8FD5F0"/>
<path transform="translate(235,1050)" d="m0 0" fill="#8FD5F0"/>
<path transform="translate(238,1049)" d="m0 0" fill="#8FD5F0"/>
<path transform="translate(255,1048)" d="m0 0" fill="#8FD5F0"/>
<path transform="translate(247,1048)" d="m0 0" fill="#8FD5F0"/>
<path transform="translate(253,1047)" d="m0 0" fill="#8FD5F0"/>
<path transform="translate(250,1047)" d="m0 0" fill="#8FD5F0"/>
<path transform="translate(243,1047)" d="m0 0" fill="#8FD5F0"/>
<path transform="translate(238,1047)" d="m0 0" fill="#8FD5F0"/>
<path transform="translate(234,1047)" d="m0 0" fill="#8FD5F0"/>
<path transform="translate(235,1046)" d="m0 0" fill="#8FD5F0"/>
<path transform="translate(253,1045)" d="m0 0" fill="#8FD5F0"/>
<path transform="translate(238,1041)" d="m0 0" fill="#8FD5F0"/>
<path transform="translate(251,1040)" d="m0 0" fill="#8FD5F0"/>
<path transform="translate(249,1040)" d="m0 0" fill="#8FD5F0"/>
<path transform="translate(237,1040)" d="m0 0" fill="#8FD5F0"/>
<path transform="translate(250,1039)" d="m0 0" fill="#8FD5F0"/>
<path transform="translate(233,1039)" d="m0 0" fill="#8FD5F0"/>
<path transform="translate(251,1038)" d="m0 0" fill="#8FD5F0"/>
<path transform="translate(249,1038)" d="m0 0" fill="#8FD5F0"/>
</svg>
